# xmcd
#
# Track frame offsets:
#	150
#	21782
#	36936
#	59059
#	79486
#	97368
#	122273
#	139836
#	149887
#	166531
#	184193
#	203270
#	225234
#	258991
#	280294
#
# Disc length: 3998 seconds
#
# Revision: 12
# Processed by: cddbd v1.5.2PL0 Copyright (c) Steve Scherf et al.
# Submitted via: Jack! The Knife 20 Magnifico
#
DISCID=d60f9c0f
DTITLE=Bunbury - Flamingos
DYEAR=2002
DGENRE=Rock
TTITLE0=El Club De Los Imposibles
TTITLE1=Sí
TTITLE2=Contar Contigo
TTITLE3=Sácame De Aquí
TTITLE4=Enganchado A Tí
TTITLE5=Lady Blue
TTITLE6=San Cosme Y San Damián
TTITLE7=Un Bastón Para Tu Corazón
TTITLE8=No Se Fíe
TTITLE9=Ciudad De Bajas Pasiones
TTITLE10=Hermosos Y Malditos
TTITLE11=One, Two, Three
TTITLE12=Hoy No Estoy Para Nadie
TTITLE13=Mundo Felíz
TTITLE14=Y Al Final
EXTD=Enrique Bunbury
EXTT0=Enrique Bunbury
EXTT1=Enrique Bunbury
EXTT2=Enrique Bunbury
EXTT3=Enrique Bunbury
EXTT4=Enrique Bunbury
EXTT5=Enrique Bunbury
EXTT6=Enrique Bunbury
EXTT7=Enrique Bunbury
EXTT8=Enrique Bunbury
EXTT9=Enrique Bunbury
EXTT10=Enrique Bunbury
EXTT11=Enrique Bunbury
EXTT12=Enrique Bunbury
EXTT13=Enrique Bunbury
EXTT14=Enrique Bunbury
PLAYORDER=
